 <svg version="1.0" xmlns="http://www.w3.org/2000/svg" width="150.000000pt" height="75.000000pt" viewBox="0 0 700.000000 350.000000" preserveAspectRatio="xMidYMid meet">
<metadata>
Created by potrace 1.12, written by Peter Selinger 2001-2015
</metadata>
<g transform="translate(0.000000,700.000000) scale(0.100000,-0.100000)" fill="#000000" stroke="none">
<path d="M213 6842 c-10 -25 4 -447 15 -474 11 -28 13 -28 101 -28 59 0 92 4
98 13 5 6 24 70 41 141 17 71 36 134 41 139 9 9 458 41 493 35 13 -2 -39 -80
-214 -318 -128 -173 -325 -443 -440 -599 l-208 -285 27 -45 c14 -26 37 -63 50
-83 l23 -38 573 0 c314 0 577 4 583 8 20 13 79 478 62 488 -14 9 -191 35 -204
30 -6 -2 -14 -17 -18 -33 -4 -15 -26 -80 -48 -144 l-42 -116 -90 -7 c-49 -3
-174 -6 -278 -6 l-189 0 22 33 c13 17 134 183 269 367 504 687 553 754 557
771 3 9 -11 49 -30 88 l-34 71 -578 3 c-463 2 -579 -1 -582 -11z"></path>
<path d="M1634 6851 c-10 -11 -3 -112 9 -116 6 -3 46 -11 87 -18 l75 -12 3
-611 2 -612 -97 -48 -98 -49 3 -35 c2 -19 9 -38 15 -42 15 -9 621 -10 695 -2
l52 7 0 57 0 57 -87 12 c-49 7 -96 15 -105 17 -17 5 -18 26 -18 260 l0 254
315 0 315 0 0 -244 0 -244 -97 -49 c-98 -48 -98 -48 -95 -83 1 -19 8 -38 15
-42 7 -4 179 -7 382 -5 l370 2 0 60 0 60 -85 13 c-47 7 -95 15 -107 18 l-23 4
0 609 0 608 95 46 c53 26 98 52 100 59 3 7 1 26 -3 41 l-7 28 -360 0 -360 0
-3 -56 c-3 -63 -8 -60 98 -78 l75 -12 3 -262 2 -263 -315 0 -315 0 0 249 0
249 98 49 c93 46 97 49 94 78 -2 17 -7 33 -11 38 -7 7 -709 15 -717 8z"></path>
<path d="M3623 5600 c-41 -25 -63 -68 -63 -124 0 -85 87 -149 172 -126 34 10
88 59 88 81 0 17 -51 9 -77 -11 -34 -27 -69 -25 -98 5 -49 48 -17 135 50 135
18 0 38 -7 45 -15 13 -15 80 -21 80 -7 0 4 -7 18 -16 30 -36 52 -123 68 -181
32z"></path>
<path d="M4017 5614 c-4 -4 -7 -65 -7 -136 l0 -128 80 0 c78 0 80 1 80 24 0
23 -5 25 -47 28 l-48 3 -5 105 c-5 96 -7 105 -25 108 -12 2 -24 0 -28 -4z"></path>
<path d="M4409 5597 c-74 -49 -86 -135 -28 -202 109 -123 304 13 219 153 -43
70 -127 92 -191 49z m120 -54 c54 -45 24 -133 -45 -133 -71 0 -103 86 -48 129
33 26 65 27 93 4z"></path>
<path d="M4784 5605 c-11 -28 4 -45 41 -45 l35 0 0 -105 0 -105 30 0 30 0 0
104 0 105 38 3 c32 3 37 6 37 28 0 25 -1 25 -103 28 -85 2 -103 0 -108 -13z"></path>
<path d="M5170 5486 l0 -136 29 0 c29 0 30 2 33 53 3 49 5 52 31 55 41 5 57
-14 57 -64 0 -42 1 -44 30 -44 l31 0 -3 133 -3 132 -27 3 c-26 3 -27 1 -30
-50 l-3 -53 -40 0 -40 0 -5 50 c-5 46 -7 50 -32 53 l-28 3 0 -135z"></path>
<path d="M5580 5486 l0 -136 30 0 31 0 -3 133 -3 132 -27 3 -28 3 0 -135z"></path>
<path d="M5837 5614 c-4 -4 -7 -65 -7 -136 l0 -129 32 3 32 3 -2 55 c-4 88 10
91 52 11 35 -67 39 -71 72 -71 l35 0 -3 133 -3 132 -30 0 -30 0 3 -55 c4 -88
-10 -92 -55 -13 -30 52 -45 69 -64 71 -14 2 -28 0 -32 -4z"></path>
<path d="M6303 5600 c-41 -25 -63 -68 -63 -124 0 -85 87 -149 171 -126 46 13
88 58 96 103 l6 37 -67 0 c-59 0 -66 -2 -66 -20 0 -14 7 -20 23 -20 33 0 40
-10 20 -32 -23 -26 -69 -23 -98 7 -33 32 -34 83 -2 113 27 26 79 29 97 7 12
-14 80 -22 80 -9 0 17 -24 45 -54 63 -42 26 -101 27 -143 1z"></path>
</g>
</svg>